<?xml version="1.0" encoding="utf-8"?>
<!-- Generator: Adobe Illustrator 18.1.1, SVG Export Plug-In . SVG Version: 6.00 Build 0)  -->
<svg version="1.1" id="Camada_1" xmlns="http://www.w3.org/2000/svg" xmlns:xlink="http://www.w3.org/1999/xlink" x="0px" y="0px"
	 viewBox="0 0 42 42" enable-background="new 0 0 42 42" xml:space="preserve">
<g>
	<path fill="none" stroke="#D60E33" stroke-width="0.75" stroke-miterlimit="10" d="M35.3,9.7c-0.4,1.3-1.8,2.1-3.1,1.7
		c-1.3-0.4-2-1.8-1.7-3.2c0.4-1.3,1.8-2.1,3.1-1.7S35.7,8.3,35.3,9.7z"/>
	<path fill="none" stroke="#D60E33" stroke-width="0.75" stroke-miterlimit="10" d="M30.7,36.8c0,0,0-5.7-0.1-7.5
		c0-0.4-0.2-0.6-0.4-0.9l-3.8-4.3c-0.4-0.6-0.4-1.3-0.2-2l1.7-5.5c0.4-1.3,1.8-2.3,3.1-1.9c1.5,0.4,2.1,1.8,1.9,3.4l-0.4,4l4.6,0.1"
		/>
	<polyline fill="none" stroke="#D60E33" stroke-width="0.75" stroke-miterlimit="10" points="24.9,26.7 22.7,29.3 17.6,29.3 	"/>
	<polyline fill="none" stroke="#D60E33" stroke-width="0.75" stroke-miterlimit="10" points="25.5,15 22.9,15 19.9,20.5 	"/>
	<line fill="none" stroke="#D60E33" stroke-width="0.75" stroke-miterlimit="10" x1="26.2" y1="35.1" x2="17.6" y2="35.1"/>
	<polyline fill="none" stroke="#D60E33" stroke-width="0.75" stroke-miterlimit="10" points="26.2,11.8 26.2,0.4 4.5,0.4 	"/>
	<path fill="none" stroke="#D60E33" stroke-width="0.75" stroke-miterlimit="10" d="M31.1,12.5"/>
	<path fill="none" stroke="#D60E33" stroke-width="0.75" stroke-miterlimit="10" d="M31.1,22.5"/>
	<polygon fill="none" stroke="#D60E33" stroke-width="0.75" stroke-miterlimit="10" points="4.5,0.6 4.5,33.8 17.6,41.2 17.6,8.1 	
		"/>
</g>
</svg>
