<?xml version="1.0" encoding="utf-8"?>
<!-- Generator: Adobe Illustrator 18.1.1, SVG Export Plug-In . SVG Version: 6.00 Build 0)  -->
<svg version="1.1" id="Camada_1" xmlns="http://www.w3.org/2000/svg" xmlns:xlink="http://www.w3.org/1999/xlink" x="0px" y="0px"
	 viewBox="0 0 42 42" enable-background="new 0 0 42 42" xml:space="preserve">
<g>
	<path fill="none" stroke="#D60E33" stroke-width="0.75" stroke-miterlimit="10" d="M19.2,11.3c-0.3,1.3-1.7,2.1-3,1.6
		s-1.9-1.7-1.5-3s1.7-2.1,3-1.6C18.9,8.6,19.5,9.9,19.2,11.3z"/>
	<path fill="none" stroke="#D60E33" stroke-width="0.75" stroke-miterlimit="10" d="M14.9,37.4c0,0,0-5.5-0.2-7.3
		c0-0.3-0.2-0.6-0.3-0.8l-3.6-4.1c-0.3-0.6-0.3-1.3-0.2-1.9l1.5-5.3c0.3-1.3,1.7-2.2,3-1.9c1.4,0.3,2,1.7,1.9,3.4l-0.3,3.8h4.4"/>
	<polyline fill="none" stroke="#D60E33" stroke-width="0.75" stroke-miterlimit="10" points="9.3,27.7 7.1,30.2 1.4,30.2 	"/>
	<polyline fill="none" stroke="#D60E33" stroke-width="0.75" stroke-miterlimit="10" points="9.9,16.4 7.5,16.4 4.5,21.6 	"/>
	<polyline fill="none" stroke="#D60E33" stroke-width="0.75" stroke-miterlimit="10" points="20.1,30.5 20.1,32.9 28.4,32.9 	"/>
	<polyline fill="none" stroke="#D60E33" stroke-width="0.75" stroke-miterlimit="10" points="20.1,5.1 20.1,1 40.8,1 	"/>
	<path fill="none" stroke="#D60E33" stroke-width="0.75" stroke-miterlimit="10" d="M15.1,14"/>
	<path fill="none" stroke="#D60E33" stroke-width="0.75" stroke-miterlimit="10" d="M15.1,23.7"/>
	<polygon fill="none" stroke="#D60E33" stroke-width="0.75" stroke-miterlimit="10" points="40.8,1.1 40.8,33 28.4,40.4 28.4,8.3 	
		"/>
</g>
</svg>
