<?xml version="1.0" encoding="utf-8"?>
<!-- Generator: Adobe Illustrator 18.1.1, SVG Export Plug-In . SVG Version: 6.00 Build 0)  -->
<svg version="1.1" id="Camada_1" xmlns="http://www.w3.org/2000/svg" xmlns:xlink="http://www.w3.org/1999/xlink" x="0px" y="0px"
	 viewBox="0 0 48 48" enable-background="new 0 0 48 48" xml:space="preserve">
<g>
	<path fill="none" stroke="#111111" stroke-width="0.75" stroke-miterlimit="10" d="M21.3,13c-0.4,1.5-2,2.4-3.5,1.8s-2.2-2-1.8-3.5
		c0.4-1.5,2-2.4,3.5-1.8C20.9,9.9,21.7,11.4,21.3,13z"/>
	<path fill="none" stroke="#111111" stroke-width="0.75" stroke-miterlimit="10" d="M16.2,43.2c0,0,0-6.4-0.2-8.5
		c0-0.4-0.2-0.7-0.4-0.9L11.4,29c-0.4-0.7-0.4-1.5-0.2-2.2l1.8-6.1c0.4-1.5,2-2.6,3.5-2.2c1.7,0.4,2.4,2,2.2,3.9l-0.4,4.4h5.2"/>
	<polyline fill="none" stroke="#111111" stroke-width="0.75" stroke-miterlimit="10" points="9.7,32 7.1,34.9 0.3,34.9 	"/>
	<polyline fill="none" stroke="#111111" stroke-width="0.75" stroke-miterlimit="10" points="10.3,18.9 7.5,18.9 4,25 	"/>
	<polyline fill="none" stroke="#111111" stroke-width="0.75" stroke-miterlimit="10" points="22.4,35.3 22.4,38 32.2,38 	"/>
	<polyline fill="none" stroke="#111111" stroke-width="0.75" stroke-miterlimit="10" points="22.4,5.8 22.4,1.1 46.7,1.1 	"/>
	<path fill="none" stroke="#111111" stroke-width="0.75" stroke-miterlimit="10" d="M16.5,16.1"/>
	<path fill="none" stroke="#111111" stroke-width="0.75" stroke-miterlimit="10" d="M16.5,27.4"/>
	<polygon fill="none" stroke="#111111" stroke-width="0.75" stroke-miterlimit="10" points="46.7,1.2 46.7,38.2 32.2,46.7 32.2,9.5 
			"/>
</g>
</svg>
