<?xml version="1.0" encoding="utf-8"?>
<!-- Generator: Adobe Illustrator 18.1.1, SVG Export Plug-In . SVG Version: 6.00 Build 0)  -->
<svg version="1.1" id="Camada_1" xmlns="http://www.w3.org/2000/svg" xmlns:xlink="http://www.w3.org/1999/xlink" x="0px" y="0px"
	 viewBox="0 0 48 48" enable-background="new 0 0 48 48" xml:space="preserve">
<g>
	<polygon fill="none" stroke="#231F20" stroke-width="0.75" stroke-linecap="round" stroke-linejoin="round" points="30.4,34 18,34 
		18,44.8 20.5,44.8 22.5,46.4 25.5,46.4 27.5,44.8 30.4,44.8 	"/>
	<path fill="none" stroke="#231F20" stroke-width="0.75" stroke-linecap="round" stroke-linejoin="round" d="M37.5,14.4
		c0-7.3-6-13.3-13.5-13.3c-7.5,0-13.5,5.9-13.5,13.3c0,3.9,1.7,8.2,4.5,11.4l0,0c0,0,3.9,4.6,3.9,8.2h10.6v0l0,0
		c0-3.7,3.5-8.2,3.5-8.2C35.8,22.6,37.5,18.3,37.5,14.4z"/>
	
		<line fill="none" stroke="#231F20" stroke-width="0.75" stroke-linecap="round" stroke-linejoin="round" x1="24" y1="34" x2="24" y2="20"/>
	
		<ellipse transform="matrix(0.6932 0.7208 -0.7208 0.6932 20.001 -9.3703)" fill="none" stroke="#231F20" stroke-width="0.75" stroke-linecap="round" stroke-linejoin="round" cx="21" cy="18.8" rx="3.6" ry="2.3"/>
	
		<ellipse transform="matrix(-0.6932 0.7208 -0.7208 -0.6932 59.25 12.3928)" fill="none" stroke="#231F20" stroke-width="0.75" stroke-linecap="round" stroke-linejoin="round" cx="27" cy="18.8" rx="3.6" ry="2.3"/>
</g>
</svg>
