<?xml version="1.0" encoding="utf-8"?>
<!-- Generator: Adobe Illustrator 18.1.1, SVG Export Plug-In . SVG Version: 6.00 Build 0)  -->
<svg version="1.1" id="Camada_1" xmlns="http://www.w3.org/2000/svg" xmlns:xlink="http://www.w3.org/1999/xlink" x="0px" y="0px"
	 viewBox="0 0 48 48" enable-background="new 0 0 48 48" xml:space="preserve">
<g>
	
		<line fill="none" stroke="#231E21" stroke-width="0.75" stroke-linecap="round" stroke-linejoin="round" stroke-miterlimit="10" x1="24.2" y1="2.4" x2="24.2" y2="9.7"/>
	
		<line fill="none" stroke="#231E21" stroke-width="0.75" stroke-linecap="round" stroke-linejoin="round" stroke-miterlimit="10" x1="32.8" y1="4.2" x2="28.8" y2="11.1"/>
	
		<line fill="none" stroke="#231E21" stroke-width="0.75" stroke-linecap="round" stroke-linejoin="round" stroke-miterlimit="10" x1="15.5" y1="4.2" x2="19.5" y2="11.1"/>
	
		<path fill="none" stroke="#231E21" stroke-width="0.75" stroke-linecap="round" stroke-linejoin="round" stroke-miterlimit="10" d="
		M4.1,31.7c-1.6,0-2.9-1.3-2.9-2.9S2.5,26,4.1,26"/>
	
		<path fill="none" stroke="#231E21" stroke-width="0.75" stroke-linecap="round" stroke-linejoin="round" stroke-miterlimit="10" d="
		M25.9,20v-2.1h3.3h17.2v6.3H34.8c-3,0-5.4,2.2-5.6,5.2c-0.5,6.3-6.2,11.5-13,10.2c-4.3-0.8-7.7-4.3-8.6-8.6
		c-1.4-7.2,4.3-13.1,11.1-13.1h3.9V20c0,1.1,0.6,1.9,1.7,1.9l0,0C25.2,21.9,25.9,21.1,25.9,20z"/>
</g>
</svg>
