<?xml version="1.0" encoding="utf-8"?>
<!-- Generator: Adobe Illustrator 18.1.1, SVG Export Plug-In . SVG Version: 6.00 Build 0)  -->
<svg version="1.1" id="Camada_1" xmlns="http://www.w3.org/2000/svg" xmlns:xlink="http://www.w3.org/1999/xlink" x="0px" y="0px"
	 viewBox="0 0 42 42" enable-background="new 0 0 42 42" xml:space="preserve">
<g>
	<path fill="none" stroke="#D60E33" stroke-width="0.75" stroke-miterlimit="10" d="M23.3,3.4c0,1.4-1.2,3.4-2.7,3.4
		c-1.5,0-2.7-2-2.7-3.4s1.2-2.6,2.7-2.6C22.1,0.9,23.3,2,23.3,3.4z"/>
	<line fill="none" stroke="#D60E33" stroke-width="0.75" stroke-miterlimit="10" x1="10.1" y1="23.1" x2="31" y2="23.1"/>
	<path fill="none" stroke="#D60E33" stroke-width="0.75" stroke-miterlimit="10" d="M12.9,19.9l0.1-4.6c0-2.5,2-4.6,4.7-5.5
		c1.3,1.8,4.5,1.8,5.8,0c2.7,0.9,4.7,3,4.7,5.5l0.1,4.6"/>
	<polygon fill="none" stroke="#D60E33" stroke-width="0.75" stroke-miterlimit="10" points="24.3,41.7 16.7,41.7 13.4,23.1 
		27.6,23.1 	"/>
	<polyline fill="none" stroke="#D60E33" stroke-width="0.75" stroke-miterlimit="10" points="18.6,23.1 18.6,17.3 20.9,14.4 	"/>
</g>
</svg>
