<?xml version="1.0" encoding="utf-8"?>
<!-- Generator: Adobe Illustrator 18.1.1, SVG Export Plug-In . SVG Version: 6.00 Build 0)  -->
<svg version="1.1" id="Camada_1" xmlns="http://www.w3.org/2000/svg" xmlns:xlink="http://www.w3.org/1999/xlink" x="0px" y="0px"
	 viewBox="0 0 48 48" enable-background="new 0 0 48 48" xml:space="preserve">
<g>
	<path fill="none" stroke="#231E21" stroke-width="0.75" stroke-miterlimit="10" d="M26.5,4.2c0,1.6-1.4,3.9-3.1,3.9
		s-3.1-2.3-3.1-3.9s1.4-2.9,3.1-2.9C25.1,1.3,26.5,2.6,26.5,4.2z"/>
	<line fill="none" stroke="#231E21" stroke-width="0.75" stroke-miterlimit="10" x1="11.6" y1="26.5" x2="35.2" y2="26.5"/>
	<path fill="none" stroke="#231E21" stroke-width="0.75" stroke-miterlimit="10" d="M14.7,22.8l0.1-5.2c0-2.8,2.2-5.2,5.3-6.2
		c1.5,2,5.1,2,6.6,0c3.1,1,5.3,3.4,5.3,6.2l0.1,5.2"/>
	<polygon fill="none" stroke="#231E21" stroke-width="0.75" stroke-miterlimit="10" points="27.6,47.5 19,47.5 15.3,26.5 31.3,26.5 
			"/>
	<polyline fill="none" stroke="#231E21" stroke-width="0.75" stroke-miterlimit="10" points="21.2,26.5 21.2,19.9 23.8,16.6 	"/>
</g>
</svg>
