<?xml version="1.0" encoding="utf-8"?>
<!-- Generator: Adobe Illustrator 18.1.1, SVG Export Plug-In . SVG Version: 6.00 Build 0)  -->
<svg version="1.1" id="Camada_1" xmlns="http://www.w3.org/2000/svg" xmlns:xlink="http://www.w3.org/1999/xlink" x="0px" y="0px"
	 viewBox="0 0 48 48" enable-background="new 0 0 48 48" xml:space="preserve">
<g>
	
		<path fill="none" stroke="#231E21" stroke-width="0.75" stroke-linecap="round" stroke-linejoin="round" stroke-miterlimit="10" d="
		M24.8,33c-2.8-1.1-5.8-2.4-6.1-3.2v-0.9c0.6-0.6,1-1.4,1.3-2.4c0.6-0.4,0.8-1.4,0.3-2v-1.9c0-2-1.1-3.4-3.7-3.4
		c-2.5,0-3.7,1.4-3.7,3.4v1.9c-0.5,0.7-0.4,1.6,0.3,2c0.3,1,0.7,1.8,1.3,2.4v0.9c-0.3,0.8-3.3,2.2-6.1,3.2C8.1,33.1,8,33.3,8,33.6
		v2.2c0,0.3,0.3,0.6,0.6,0.6h16c0.3,0,0.6-0.3,0.6-0.6v-2.2C25.2,33.3,25,33.1,24.8,33z"/>
	<path fill="none" stroke="#231E21" stroke-width="0.75" stroke-linecap="round" stroke-linejoin="round" d="M28.3,4.1
		C28,3.7,27.5,3.5,27,3.5h-5.3c-0.5,0-1,0.2-1.3,0.6C20,4.4,19.9,5,20,5.5l1.1,8.9c0.1,0.9,0.9,1.6,1.8,1.6h3.2
		c0.9,0,1.7-0.7,1.8-1.6L29,5.5C28.8,5,28.6,4.4,28.3,4.1z"/>
	<path fill="none" stroke="#231E21" stroke-width="0.75" stroke-linecap="round" stroke-linejoin="round" d="M28.3,4.1
		C28,3.7,27.5,3.5,27,3.5h-5.3c-0.5,0-1,0.2-1.3,0.6C20,4.4,19.9,5,20,5.5l1.1,8.9c0.1,0.9,0.9,1.6,1.8,1.6h3.2
		c0.9,0,1.7-0.7,1.8-1.6L29,5.5C28.8,5,28.6,4.4,28.3,4.1z"/>
	
		<polyline fill="none" stroke="#231E21" stroke-width="0.75" stroke-linecap="round" stroke-linejoin="round" stroke-miterlimit="10" points="
		28.1,11.3 47.1,11.3 47.1,42.8 1.5,42.8 1.5,11.3 20.6,11.3 	"/>
	
		<line fill="none" stroke="#231E21" stroke-width="0.75" stroke-linecap="round" stroke-linejoin="round" x1="29.9" y1="23.9" x2="40.9" y2="23.9"/>
	
		<line fill="none" stroke="#231E21" stroke-width="0.75" stroke-linecap="round" stroke-linejoin="round" x1="29.9" y1="28.6" x2="40.9" y2="28.6"/>
</g>
</svg>
