<svg xmlns="http://www.w3.org/2000/svg" xmlns:xlink="http://www.w3.org/1999/xlink" xmlns:sketch="http://www.bohemiancoding.com/sketch/ns" width="30px" height="30px" viewBox="0 0 30 30" version="1.1">
    <g id="Page-1" stroke="none" stroke-width=".7" fill="none" fill-rule="evenodd" sketch:type="MSPage">
        <g id="thin-strokes_30PX_strokes" sketch:type="MSLayerGroup" transform="translate(-1289.000000, -329.000000)" stroke-linecap="round" stroke="#111" stroke-linejoin="round">
            <g id="Group-1705" transform="translate(89.000000, 39.000000)" sketch:type="MSShapeGroup">




                <path d="M902,318.5 L928,318.5 L902,318.5 Z M902,303.5 L928,303.5 L902,303.5 Z M903.5,305.5 L903.5,316.5 L903.5,305.5 Z M905.5,305.5 L905.5,316.5 L905.5,305.5 Z M908.5,305.5 L908.5,316.5 L908.5,305.5 Z M910.5,305.5 L910.5,316.5 L910.5,305.5 Z M913.5,305.5 L913.5,316.5 L913.5,305.5 Z M916.5,305.5 L916.5,316.5 L916.5,305.5 Z M919.5,305.5 L919.5,316.5 L919.5,305.5 Z M921.5,305.5 L921.5,316.5 L921.5,305.5 Z M924.5,305.5 L924.5,316.5 L924.5,305.5 Z M926.5,305.5 L926.5,316.5 L926.5,305.5 Z M1229.06,295.485 L1205.97,295.483 L1209.75,291.513 L1225.32,291.519 L1229.06,295.485 L1229.06,295.485 Z M1208.49,298.01 L1205.97,300.485 L1229.06,300.485 L1226.56,298.01 L1208.49,298.01 Z M1208.49,303.01 L1205.97,305.484 L1229.06,305.484 L1226.56,303.01 L1208.49,303.01 Z" id="Stroke-1410"/>
                <path d="M1205.5,310.979 C1208.13,310.585 1211.56,310.285 1213.66,310.949 L1220.53,313.114 C1222.49,313.731 1221.62,316.925 1219.66,316.308 L1212.45,314.033 M1221.51,314.044 L1226.86,311.424 C1228.81,310.473 1230.03,313.53 1228.19,314.43 C1220.06,318.41 1220.7,318.433 1217.47,318.433 C1215.6,318.433 1212.82,318.114 1209.27,316.408 C1208.72455,316.147805 1207.73358,316.22066 1206.66153,316.445951 C1206.27916,316.526306 1205.88647,316.626055 1205.5,316.737 M1200.5,309.5 L1205.5,309.5 L1205.5,318.5 L1200.5,318.5 L1200.5,309.5 Z" id="Stroke-1411"/>
            </g>
        </g>
    </g>
</svg>
