<svg xmlns="http://www.w3.org/2000/svg" xmlns:xlink="http://www.w3.org/1999/xlink" xmlns:sketch="http://www.bohemiancoding.com/sketch/ns" width="30px" height="30px" viewBox="0 0 30 30" version="1.1">
    <g id="Page-1" stroke="none" stroke-width=".7" fill="none" fill-rule="evenodd" sketch:type="MSPage">
        <g id="thin-strokes_30PX_strokes" sketch:type="MSLayerGroup" transform="translate(-479.000000, -325.000000)" stroke-linecap="round" stroke="#111" stroke-linejoin="round">
            <g id="Group-1705" transform="translate(89.000000, 39.000000)" sketch:type="MSShapeGroup">
                <path d="M468.027,249.556 L475.027,249.556 L468.027,249.556 Z M464.527,255.869 L464.527,237.547 C464.527,236.41 461.403,235.488 457.526,235.488 C453.651,235.488 450.527,236.41 450.527,237.547 L450.527,255.869 C452.527,255.513 454.965,255.308 457.526,255.308 C460.089,255.308 462.527,255.513 464.527,255.869 L464.527,255.869 Z M478.527,255.869 L478.527,237.547 C478.527,236.41 475.403,235.488 471.527,235.488 C467.651,235.488 464.527,236.41 464.527,237.547 L464.527,255.869 C466.527,255.513 468.964,255.308 471.527,255.308 C474.088,255.308 476.527,255.513 478.527,255.869 L478.527,255.869 Z M394.027,241.454 L401.027,241.454 L394.027,241.454 Z M394.027,245.454 L401.027,245.454 L394.027,245.454 Z M394.027,249.454 L401.027,249.454 L394.027,249.454 Z M404.527,255.869 L404.527,236.941 C404.527,235.767 401.531,234.815 397.526,234.815 C393.523,234.815 390.527,235.767 390.527,236.941 L390.527,255.869 C392.527,255.501 394.88,255.289 397.526,255.289 C400.174,255.289 402.527,255.501 404.527,255.869 L404.527,255.869 Z M408.527,235.076 C406.194,235.429 404.527,236.118 404.527,236.941 L404.527,255.869 C407.527,255.501 409.379,255.289 412.027,255.289 C414.673,255.289 417.527,255.501 419.527,255.869 L419.527,236.941 C419.527,236.137 417.809,235.437 415.564,235.076 L408.527,235.076 Z M414.63,247.082 L412.352,245.091 C412.165,244.928 411.887,244.926 411.698,245.088 L409.352,247.099 C409.028,247.377 408.527,247.147 408.527,246.72 L408.527,232.454 L415.459,232.454 L415.459,246.706 C415.459,247.135 414.954,247.365 414.63,247.082 L414.63,247.082 Z M578.583,238.517 L585.34,238.517 L578.583,238.517 Z M578.583,241.517 L585.34,241.517 L578.583,241.517 Z M578.583,244.517 L585.34,244.517 L578.583,244.517 Z M578.583,247.517 L585.34,247.517 L578.583,247.517 Z M578.583,250.517 L585.34,250.517 L578.583,250.517 Z M588.583,250.517 L595.34,250.517 L588.583,250.517 Z M588.583,247.517 L595.34,247.517 L588.583,247.517 Z M574.47,236.456 L574.47,234.517 L597.309,234.517 C598.535,234.517 599.497,235.587 599.497,236.819 L599.497,251.372 C599.497,252.563 598.569,253.523 597.385,253.523 L572.517,253.523 L574.47,236.456 Z M574.47,251.596 C574.47,252.663 573.54,253.528 572.492,253.528 C571.449,253.528 570.524,252.667 570.524,251.606 L570.524,236.456 L574.47,236.456 L574.47,251.596 L574.47,251.596 Z M588.5,238.5 L595.5,238.5 L595.5,244.5 L588.5,244.5 L588.5,238.5 Z M390.668,315.508 L419.318,315.508 L390.668,315.508 Z M391.462,296.468 L399.515,296.468 L399.515,315.508 L391.462,315.508 L391.462,296.468 Z M396.844,311.542 L394.183,311.542 L396.844,311.542 Z M419.131,313.335 L413.076,315.505 L407.583,298.243 L413.638,296.072 L419.131,313.335 L419.131,313.335 Z M412.913,300.398 C413.123,301.034 412.798,301.728 412.188,301.947 C411.578,302.165 410.912,301.827 410.703,301.19 C410.493,300.553 410.818,299.859 411.428,299.641 C412.039,299.422 412.704,299.761 412.913,300.398 L412.913,300.398 Z M396.996,301.03 C396.996,301.862 396.321,302.537 395.489,302.537 C394.656,302.537 393.981,301.862 393.981,301.03 C393.981,300.197 394.656,299.523 395.489,299.523 C396.321,299.523 396.996,300.197 396.996,301.03 L396.996,301.03 Z M399.515,296.468 L407.567,296.468 L407.567,315.508 L399.515,315.508 L399.515,296.468 Z M404.896,311.542 L402.236,311.542 L404.896,311.542 Z M405.048,301.03 C405.048,301.862 404.373,302.537 403.541,302.537 C402.708,302.537 402.034,301.862 402.034,301.03 C402.034,300.197 402.708,299.523 403.541,299.523 C404.373,299.523 405.048,300.197 405.048,301.03 L405.048,301.03 Z" id="Stroke-1237"/>

            </g>
        </g>
    </g>
</svg>
