<?xml version="1.0" encoding="utf-8"?>
<!-- Generator: Adobe Illustrator 18.1.1, SVG Export Plug-In . SVG Version: 6.00 Build 0)  -->
<svg version="1.1" id="Camada_1" xmlns="http://www.w3.org/2000/svg" xmlns:xlink="http://www.w3.org/1999/xlink" x="0px" y="0px"
	 viewBox="0 0 48 48" enable-background="new 0 0 48 48" xml:space="preserve">
<g>
	<polyline fill="none" stroke="#231E21" stroke-width="0.75" stroke-linecap="round" stroke-linejoin="round" points="22.2,35.9 
		18.6,45.7 15,41.3 9.3,42.3 13.1,32.1 	"/>
	<polyline fill="none" stroke="#231E21" stroke-width="0.75" stroke-linecap="round" stroke-linejoin="round" points="27.4,35.9 
		31,45.7 34.6,41.3 40.3,42.3 36.5,32.1 	"/>
	<polygon fill="none" stroke="#231E21" stroke-width="0.75" stroke-linecap="round" stroke-linejoin="round" points="38.4,17.1 
		40.8,12.8 36.5,10.3 36.5,5.3 31.6,5.3 29.1,1 24.8,3.5 20.5,1 18,5.3 13,5.3 13,10.3 8.7,12.8 11.2,17.1 8.7,21.4 13,23.9 
		13,28.8 18,28.8 20.5,33.1 24.8,30.7 29.1,33.1 31.6,28.8 36.5,28.8 36.5,23.9 40.8,21.4 	"/>
	
		<circle fill="none" stroke="#231E21" stroke-width="0.75" stroke-linecap="round" stroke-linejoin="round" cx="24.8" cy="17.1" r="9.1"/>
</g>
</svg>
