<?xml version="1.0" encoding="utf-8"?>
<!-- Generator: Adobe Illustrator 18.1.1, SVG Export Plug-In . SVG Version: 6.00 Build 0)  -->
<svg version="1.1" id="Camada_1" xmlns="http://www.w3.org/2000/svg" xmlns:xlink="http://www.w3.org/1999/xlink" x="0px" y="0px"
	 viewBox="0 0 48 48" enable-background="new 0 0 48 48" xml:space="preserve">
<g>
	
		<circle fill="none" stroke="#231F20" stroke-width="0.75" stroke-linecap="round" stroke-linejoin="round" cx="31.2" cy="15.2" r="13.8"/>
	<path fill="none" stroke="#231F20" stroke-width="0.75" stroke-linecap="round" stroke-linejoin="round" d="M22.7,7.7
		c0,0-1.8,4,0.4,3.3c1.6-0.6,1.7-1.2,1.7-1.2l0.9-1.6c0,0,0.1,2.3,0.3,2.6c0.2,0.3,0.9,1.2,1.2,0c0.5-2.4,0.6-3,1.5-3
		c0.9,0,2.7-0.7,2.9,1.4c0.2,2.1-0.2,0.9-1.3,1.4C29,11,28.7,13,29.8,13.2c1.1,0.2,3.5,1.2,3.5,1.2l1.2,1.3c0.7,2.6,0.6,2.6,0.6,4.7
		c0,0,0,2.9,1.1,2.2c1.1-0.7,4-5.2,3.4-6.9c-0.6-1.7-0.6-1.9,0.5-2.5c1.1-0.6,1.9-1.3,1.8-2.2"/>
	<path fill="none" stroke="#231F20" stroke-width="0.75" stroke-linecap="round" stroke-linejoin="round" d="M20.5,18.6
		c0,0,0.3-3.7,1.1-3.1c0.7,0.6,1.1,0.6,1.7,1.2c0.6,0.6,3.4,1,2.5,1.8c-0.9,0.8-1.3,0.8-2.5,4.5"/>
	<path fill="none" stroke="#231F20" stroke-width="0.75" stroke-linecap="round" stroke-linejoin="round" d="M34.7,39.2l8.7-4.3
		c3.2-1.5,5.1,3.4,2.1,4.9c-13.2,6.5-12.1,6.5-17.4,6.5c-3,0-7.5-0.5-13.3-3.3c-1.8-0.9-5.3,0.5-9.5,1.7c-1.3,0.4-2.7-0.5-3-1.9
		c-0.3-1-1.3-4.5-1.1-5.5c0.2-1.2,1.1-2,2.1-2.2c3.3-0.6,13.3-2.7,18.7-1l11.1,3.5c3.2,1,1.8,6.2-1.4,5.2L20,39.1"/>
</g>
</svg>
