<?xml version="1.0" encoding="utf-8"?>
<!-- Generator: Adobe Illustrator 18.1.1, SVG Export Plug-In . SVG Version: 6.00 Build 0)  -->
<svg version="1.1" id="Camada_1" xmlns="http://www.w3.org/2000/svg" xmlns:xlink="http://www.w3.org/1999/xlink" x="0px" y="0px"
	 viewBox="0 0 48 48" enable-background="new 0 0 48 48" xml:space="preserve">
<g>
	
		<line fill="none" stroke="#231E21" stroke-width="0.75" stroke-linecap="round" stroke-linejoin="round" x1="28.2" y1="25.2" x2="34.5" y2="25.2"/>
	
		<line fill="none" stroke="#231E21" stroke-width="0.75" stroke-linecap="round" stroke-linejoin="round" x1="28.2" y1="36.3" x2="34.5" y2="36.3"/>
	
		<line fill="none" stroke="#231E21" stroke-width="0.75" stroke-linecap="round" stroke-linejoin="round" x1="14" y1="25.2" x2="20.3" y2="25.2"/>
	
		<line fill="none" stroke="#231E21" stroke-width="0.75" stroke-linecap="round" stroke-linejoin="round" x1="17.1" y1="28.4" x2="17.1" y2="22.1"/>
	
		<line fill="none" stroke="#231E21" stroke-width="0.75" stroke-linecap="round" stroke-linejoin="round" x1="14" y1="33.2" x2="20.2" y2="39.4"/>
	
		<line fill="none" stroke="#231E21" stroke-width="0.75" stroke-linecap="round" stroke-linejoin="round" x1="14" y1="39.4" x2="20.2" y2="33.2"/>
	
		<line fill="none" stroke="#231E21" stroke-width="0.75" stroke-linecap="round" stroke-linejoin="round" x1="31.3" y1="33.1" x2="31.3" y2="33.1"/>
	
		<line fill="none" stroke="#231E21" stroke-width="0.75" stroke-linecap="round" stroke-linejoin="round" x1="31.3" y1="39.4" x2="31.3" y2="39.4"/>
	
		<path fill="none" stroke="#231E21" stroke-width="0.75" stroke-linecap="round" stroke-linejoin="round" stroke-miterlimit="10" d="
		M38.8,47.3H9.6c-1.1,0-2-0.9-2-2V3.5c0-1.1,0.9-2,2-2h29.2c1.1,0,2,0.9,2,2v41.8C40.8,46.4,39.9,47.3,38.8,47.3z"/>
	
		<rect x="13.9" y="7.8" fill="none" stroke="#231E21" stroke-width="0.75" stroke-linecap="round" stroke-linejoin="round" stroke-miterlimit="10" width="20.5" height="7.9"/>
</g>
</svg>
