<?xml version="1.0" encoding="utf-8"?>
<!-- Generator: Adobe Illustrator 18.1.1, SVG Export Plug-In . SVG Version: 6.00 Build 0)  -->
<svg version="1.1" id="Camada_1" xmlns="http://www.w3.org/2000/svg" xmlns:xlink="http://www.w3.org/1999/xlink" x="0px" y="0px"
	 viewBox="0 0 48 48" enable-background="new 0 0 48 48" xml:space="preserve">
<g>
	<path fill="none" stroke="#231E21" stroke-width="0.75" stroke-miterlimit="10" d="M40.3,11.1c-0.5,1.5-2.1,2.4-3.5,1.9
		c-1.5-0.5-2.3-2.1-1.9-3.6C35.4,7.9,37,7,38.4,7.5S40.8,9.5,40.3,11.1z"/>
	<path fill="none" stroke="#231E21" stroke-width="0.75" stroke-miterlimit="10" d="M35.1,42.1c0,0,0-6.5-0.1-8.6
		c0-0.4-0.2-0.7-0.4-1l-4.4-4.9c-0.4-0.7-0.5-1.5-0.2-2.3l1.9-6.3c0.5-1.5,2-2.6,3.5-2.2c1.7,0.4,2.4,2,2.2,3.9l-0.4,4.6l5.2,0.1"/>
	<polyline fill="none" stroke="#231E21" stroke-width="0.75" stroke-miterlimit="10" points="28.5,30.5 25.9,33.5 20.1,33.5 	"/>
	<polyline fill="none" stroke="#231E21" stroke-width="0.75" stroke-miterlimit="10" points="29.1,17.1 26.2,17.1 22.8,23.4 	"/>
	<line fill="none" stroke="#231E21" stroke-width="0.75" stroke-miterlimit="10" x1="30" y1="40.1" x2="20.1" y2="40.1"/>
	<polyline fill="none" stroke="#231E21" stroke-width="0.75" stroke-miterlimit="10" points="30,13.5 30,0.5 5.2,0.5 	"/>
	<path fill="none" stroke="#231E21" stroke-width="0.75" stroke-miterlimit="10" d="M35.5,14.3"/>
	<path fill="none" stroke="#231E21" stroke-width="0.75" stroke-miterlimit="10" d="M35.5,25.7"/>
	<polygon fill="none" stroke="#231E21" stroke-width="0.75" stroke-miterlimit="10" points="5.2,0.7 5.2,38.6 20.1,47.1 20.1,9.2 	
		"/>
</g>
</svg>
