<?xml version="1.0" encoding="utf-8"?>
<!-- Generator: Adobe Illustrator 18.1.1, SVG Export Plug-In . SVG Version: 6.00 Build 0)  -->
<svg version="1.1" id="Camada_1" xmlns="http://www.w3.org/2000/svg" xmlns:xlink="http://www.w3.org/1999/xlink" x="0px" y="0px"
	 viewBox="0 0 930 603" enable-background="new 0 0 930 603" xml:space="preserve">
<g>
	<path fill="none" stroke="#111111" stroke-width="0.75" stroke-miterlimit="10" d="M448.1,81.2c-2.5,9.4-12.5,15-21.9,11.2
		c-9.4-3.7-13.8-12.5-11.2-21.9s12.5-15,21.9-11.2C445.6,61.9,450.6,71.2,448.1,81.2z"/>
	<path fill="none" stroke="#111111" stroke-width="0.75" stroke-miterlimit="10" d="M416.2,270c0,0,0-40-1.2-53.1
		c0-2.5-1.2-4.4-2.5-5.6l-26.2-30c-2.5-4.4-2.5-9.4-1.2-13.8l11.2-38.1c2.5-9.4,12.5-16.3,21.9-13.8c10.6,2.5,15,12.5,13.8,24.4
		l-2.5,27.5h32.5"/>
	<polyline fill="none" stroke="#111111" stroke-width="0.75" stroke-miterlimit="10" points="375.6,200 359.4,218.1 316.9,218.1 	
		"/>
	<polyline fill="none" stroke="#111111" stroke-width="0.75" stroke-miterlimit="10" points="379.4,118.1 361.9,118.1 340,156.2 	
		"/>
	<polyline fill="none" stroke="#111111" stroke-width="0.75" stroke-miterlimit="10" points="455,220.6 455,237.5 516.2,237.5 	"/>
	<polyline fill="none" stroke="#111111" stroke-width="0.75" stroke-miterlimit="10" points="455,36.2 455,6.9 606.9,6.9 	"/>
	<path fill="none" stroke="#111111" stroke-width="0.75" stroke-miterlimit="10" d="M418.1,100.6"/>
	<path fill="none" stroke="#111111" stroke-width="0.75" stroke-miterlimit="10" d="M418.1,171.2"/>
	<polygon fill="none" stroke="#111111" stroke-width="0.75" stroke-miterlimit="10" points="606.9,7.5 606.9,238.8 516.2,291.9 
		516.2,59.4 	"/>
</g>
<g>
	<path fill="none" stroke="#D60031" stroke-width="0.75" stroke-miterlimit="10" d="M448.1,372.2c-2.5,9.4-12.5,15-21.9,11.2
		S412.5,371,415,361.6s12.5-15,21.9-11.2C445.6,352.9,450.6,362.2,448.1,372.2z"/>
	<path fill="none" stroke="#D60031" stroke-width="0.75" stroke-miterlimit="10" d="M416.2,561c0,0,0-40-1.2-53.1
		c0-2.5-1.2-4.4-2.5-5.6l-26.2-30c-2.5-4.4-2.5-9.4-1.2-13.8l11.2-38.1c2.5-9.4,12.5-16.2,21.9-13.8c10.6,2.5,15,12.5,13.8,24.4
		l-2.5,27.5h32.5"/>
	<polyline fill="none" stroke="#D60031" stroke-width="0.75" stroke-miterlimit="10" points="375.6,491 359.4,509.1 316.9,509.1 	
		"/>
	<polyline fill="none" stroke="#D60031" stroke-width="0.75" stroke-miterlimit="10" points="379.4,409.1 361.9,409.1 340,447.2 	
		"/>
	<polyline fill="none" stroke="#D60031" stroke-width="0.75" stroke-miterlimit="10" points="455,511.6 455,528.5 516.2,528.5 	"/>
	<polyline fill="none" stroke="#D60031" stroke-width="0.75" stroke-miterlimit="10" points="455,327.2 455,297.9 606.9,297.9 	"/>
	<path fill="none" stroke="#D60031" stroke-width="0.75" stroke-miterlimit="10" d="M418.1,391.6"/>
	<path fill="none" stroke="#D60031" stroke-width="0.75" stroke-miterlimit="10" d="M418.1,462.2"/>
	<polygon fill="none" stroke="#D60031" stroke-width="0.75" stroke-miterlimit="10" points="606.9,298.5 606.9,529.8 516.2,582.9 
		516.2,350.4 	"/>
</g>
</svg>
