<?xml version="1.0" encoding="utf-8"?>
<!-- Generator: Adobe Illustrator 18.1.1, SVG Export Plug-In . SVG Version: 6.00 Build 0)  -->
<svg version="1.1" id="Camada_1" xmlns="http://www.w3.org/2000/svg" xmlns:xlink="http://www.w3.org/1999/xlink" x="0px" y="0px"
	 viewBox="442.5 120 50.5 49.5" enable-background="new 442.5 120 50.5 49.5" xml:space="preserve">
<g>
	<path fill="none" stroke="#111111" stroke-width="0.75" stroke-miterlimit="10" d="M465.7,134.1c-0.4,1.5-1.9,2.4-3.4,1.8
		c-1.5-0.6-2.1-2-1.7-3.5c0.4-1.5,1.9-2.4,3.4-1.8C465.4,131.1,466.1,132.5,465.7,134.1z"/>
	<path fill="none" stroke="#111111" stroke-width="0.75" stroke-miterlimit="10" d="M460.8,163.9c0,0,0-6.3-0.2-8.4
		c0-0.4-0.2-0.7-0.4-0.9l-4.1-4.7c-0.4-0.7-0.4-1.5-0.2-2.2l1.7-6c0.4-1.5,1.9-2.6,3.4-2.2c1.6,0.4,2.3,2,2.1,3.8l-0.4,4.3h5"/>
	<polyline fill="none" stroke="#111111" stroke-width="0.75" stroke-miterlimit="10" points="454.5,152.9 452,155.7 445.4,155.7 	
		"/>
	<polyline fill="none" stroke="#111111" stroke-width="0.75" stroke-miterlimit="10" points="455.1,139.9 452.4,139.9 449,146 	"/>
	<polyline fill="none" stroke="#111111" stroke-width="0.75" stroke-miterlimit="10" points="466.8,156.1 466.8,158.8 476.3,158.8 	
		"/>
	<polyline fill="none" stroke="#111111" stroke-width="0.75" stroke-miterlimit="10" points="466.8,127 466.8,122.4 490.4,122.4 	
		"/>
	<path fill="none" stroke="#111111" stroke-width="0.75" stroke-miterlimit="10" d="M461.1,137.2"/>
	<path fill="none" stroke="#111111" stroke-width="0.75" stroke-miterlimit="10" d="M461.1,148.3"/>
	<polygon fill="none" stroke="#111111" stroke-width="0.75" stroke-miterlimit="10" points="490.4,122.5 490.4,159 476.3,167.4 
		476.3,130.7 	"/>
</g>
</svg>
