<?xml version="1.0" encoding="utf-8"?>
<!-- Generator: Adobe Illustrator 18.1.1, SVG Export Plug-In . SVG Version: 6.00 Build 0)  -->
<svg version="1.1" id="Camada_1" xmlns="http://www.w3.org/2000/svg" xmlns:xlink="http://www.w3.org/1999/xlink" x="0px" y="0px"
	 viewBox="442 127 46 46" enable-background="new 442 127 46 46" xml:space="preserve">
<g>
	<path fill="none" stroke="#D60031" stroke-width="0.75" stroke-miterlimit="10" d="M468.2,130.9c0,1.5-1.3,3.7-2.9,3.7
		s-2.9-2.2-2.9-3.7s1.3-2.7,2.9-2.7S468.2,129.4,468.2,130.9z"/>
	<line fill="none" stroke="#D60031" stroke-width="0.75" stroke-miterlimit="10" x1="454.2" y1="151.8" x2="476.3" y2="151.8"/>
	<path fill="none" stroke="#D60031" stroke-width="0.75" stroke-miterlimit="10" d="M457.1,148.3l0.1-4.9c0-2.6,2.1-4.9,5-5.8
		c1.4,1.9,4.8,1.9,6.2,0c2.9,0.9,5,3.2,5,5.8l0.1,4.9"/>
	<polygon fill="none" stroke="#D60031" stroke-width="0.75" stroke-miterlimit="10" points="469.2,171.5 461.1,171.5 457.7,151.8 
		472.7,151.8 	"/>
	<polyline fill="none" stroke="#D60031" stroke-width="0.75" stroke-miterlimit="10" points="463.2,151.8 463.2,145.6 465.6,142.5 	
		"/>
</g>
</svg>
