<svg xmlns="http://www.w3.org/2000/svg" xmlns:xlink="http://www.w3.org/1999/xlink" xmlns:sketch="http://www.bohemiancoding.com/sketch/ns" width="30px" height="30px" viewBox="0 0 30 30" version="1.1">
    <g id="Page-1" stroke="none" stroke-width=".7" fill="none" fill-rule="evenodd" sketch:type="MSPage">
        <g id="thin-strokes_30PX_strokes" sketch:type="MSLayerGroup" transform="translate(-869.000000, -1948.000000)" stroke-linecap="round" stroke="#111" stroke-linejoin="round">
            <g id="Group-1705" transform="translate(89.000000, 39.000000)" sketch:type="MSShapeGroup">
                <path d="M809.224,1917.71 L801.314,1909.84 C801.124,1909.65 800.867,1909.55 800.599,1909.55 L789.417,1909.55 C789.149,1909.55 788.892,1909.65 788.702,1909.84 L780.796,1917.71 C780.607,1917.9 780.5,1918.15 780.5,1918.42 L780.5,1929.55 C780.5,1929.81 780.607,1930.07 780.796,1930.26 L788.702,1938.13 C788.892,1938.32 789.149,1938.42 789.417,1938.42 L800.599,1938.42 C800.868,1938.42 801.124,1938.32 801.314,1938.13 L809.225,1930.26 C809.414,1930.07 809.52,1929.81 809.52,1929.55 L809.52,1918.42 C809.52,1918.15 809.414,1917.9 809.224,1917.71 L809.224,1917.71 Z" id="Stroke-696"/>
                <path d="M794.813,1915.28 C795.252,1914.53 796.386,1914.69 796.6,1915.53 C797.118,1917.57 796.691,1920.54 797.243,1922.55 C798.559,1921.87 798.62,1914.91 800.912,1916.62 C801.217,1916.84 801.388,1917.21 801.365,1917.59 C801.221,1920.01 800.095,1921.45 799.817,1923.74 C800.873,1923.56 801.39,1921.27 802.299,1920.22 C802.931,1919.49 804.137,1919.99 804.065,1920.95 C803.901,1923.15 802.344,1924.4 801.657,1926.21 C801.004,1927.92 801.392,1929.91 800.277,1931.33 C798.755,1933.27 795.321,1934.33 792.553,1932.61 C791.251,1931.81 790.04,1929.84 788.783,1928.49 C788.345,1928.03 787.745,1927.76 787.403,1927.4 C786.914,1926.88 784.971,1924.57 786.575,1924.1 C788.71,1923.48 789.535,1926.38 790.806,1926.76 C794.045,1924.41 789.277,1919.49 789.794,1916.87 C789.882,1916.43 790.332,1915.99 790.714,1915.96 C792.39,1915.81 792.891,1919.67 794.208,1922.09 C794.989,1920.81 793.977,1916.71 794.813,1915.28 L794.813,1915.28 Z M1037.32,1929.16 C1037.27,1929.3 1037.3,1929.46 1037.38,1929.59 L1041.81,1936.8 C1041.96,1937.05 1042.29,1937.13 1042.55,1936.98 C1046.21,1934.86 1049.13,1930.79 1049.13,1925.53 C1049.13,1925.09 1049.1,1924.67 1048.58,1924.66 L1040.14,1924.51 C1039.99,1924.51 1039.84,1924.57 1039.74,1924.68 L1037.32,1929.16 Z M1037.38,1920.71 C1037.53,1920.68 1037.66,1920.58 1037.73,1920.44 L1041.77,1913.01 C1041.92,1912.75 1041.83,1912.43 1041.57,1912.28 C1037.58,1909.93 1032.15,1909.93 1028.11,1912.42 C1027.86,1912.58 1027.78,1912.9 1027.92,1913.15 L1032.03,1920.55 C1032.13,1920.72 1032.31,1920.83 1032.51,1920.83 L1037.38,1920.71 Z M1030.19,1924.77 C1030.08,1924.66 1029.93,1924.59 1029.78,1924.6 L1021.35,1924.83 C1021.03,1924.84 1020.82,1925.03 1020.82,1925.54 C1020.8,1930.79 1023.73,1934.9 1027.51,1937.07 C1027.76,1937.22 1028.09,1937.14 1028.24,1936.88 L1032.61,1929.63 C1032.69,1929.5 1032.71,1929.34 1032.67,1929.19 L1030.19,1924.77 Z M1034.96,1922.61 C1033.68,1922.61 1032.69,1923.65 1032.72,1924.85 C1032.69,1926.05 1033.66,1927.09 1034.96,1927.12 C1036.24,1927.09 1037.22,1926.11 1037.22,1924.85 C1037.22,1923.6 1036.23,1922.61 1034.96,1922.61 L1034.96,1922.61 Z" id="Stroke-697"/>

            </g>
        </g>
    </g>
</svg>
