<svg xmlns="http://www.w3.org/2000/svg" xmlns:xlink="http://www.w3.org/1999/xlink" xmlns:sketch="http://www.bohemiancoding.com/sketch/ns" width="30px" height="30px" viewBox="0 0 30 30" version="1.1">
    <g id="Page-1" stroke="none" stroke-width=".7" fill="none" fill-rule="evenodd" sketch:type="MSPage">
        <g id="thin-strokes_30PX_strokes" sketch:type="MSLayerGroup" transform="translate(-1169.000000, -329.000000)" stroke-linecap="round" stroke="#111" stroke-linejoin="round">
            <g id="Group-1705" transform="translate(89.000000, 39.000000)" sketch:type="MSShapeGroup">
                <path d="M1086.87,292.134 L1103.12,298.383 L1086.87,292.134 Z M1081.22,303.397 L1086.87,292.134 L1092.48,303.397 L1081.22,303.397 Z M1092.48,303.396 C1092.48,306.14 1089.96,308.365 1086.85,308.365 C1083.74,308.365 1081.22,306.14 1081.22,303.396 L1092.48,303.396 L1092.48,303.396 Z M1097.47,309.485 L1103.12,298.383 L1108.73,309.485 L1097.47,309.485 Z M1108.73,309.484 C1108.73,312.228 1106.21,314.615 1103.1,314.615 C1099.99,314.615 1097.47,312.228 1097.47,309.484 L1108.73,309.484 L1108.73,309.484 Z M1094.99,318.383 L1094.99,292.443 L1094.99,318.383 Z M1100.55,318.383 L1089.31,318.383 L1100.55,318.383 Z" id="Stroke-906"/>
                <path d="M1095.56,243.889 C1095.56,245.598 1094.17,246.982 1092.47,246.982 C1090.76,246.982 1089.37,245.598 1089.37,243.889 C1089.37,242.181 1090.76,240.797 1092.47,240.797 C1094.17,240.797 1095.56,242.181 1095.56,243.889 L1095.56,243.889 Z M782.538,304.871 C781.684,304.87 780.991,304.178 780.99,303.323 C780.99,302.469 781.683,301.776 782.537,301.777 C783.392,301.777 784.085,302.469 784.085,303.324 C784.085,304.178 783.392,304.87 782.538,304.871 L782.538,304.871 Z M790.811,299.606 C789.957,299.606 789.264,298.913 789.264,298.059 C789.264,297.204 789.956,296.511 790.81,296.512 C791.665,296.512 792.358,297.205 792.358,298.059 C792.358,298.913 791.665,299.606 790.811,299.606 L790.811,299.606 Z M799.084,312.392 C798.23,312.391 797.537,311.699 797.536,310.844 C797.536,309.99 798.229,309.297 799.083,309.297 C799.938,309.297 800.631,309.99 800.631,310.845 C800.631,311.699 799.938,312.391 799.084,312.392 L799.084,312.392 Z M807.357,303.367 C806.503,303.366 805.81,302.674 805.81,301.819 C805.81,300.965 806.502,300.272 807.356,300.272 C808.211,300.272 808.904,300.965 808.904,301.82 C808.904,302.674 808.211,303.366 807.357,303.367 L807.357,303.367 Z M789.519,298.909 L783.842,302.494 L789.519,298.909 Z M791.651,299.357 L798.243,309.546 L791.651,299.357 Z M800.116,309.698 L806.321,302.965 L800.116,309.698 Z M1026.83,255.231 C1026.83,256.905 1025.47,258.261 1023.8,258.261 C1022.12,258.261 1020.77,256.905 1020.77,255.231 C1020.77,253.557 1022.12,252.2 1023.8,252.2 C1025.47,252.2 1026.83,253.557 1026.83,255.231 L1026.83,255.231 Z M1037.48,255.231 C1037.48,256.905 1036.13,258.261 1034.45,258.261 C1032.78,258.261 1031.42,256.905 1031.42,255.231 C1031.42,253.557 1032.78,252.2 1034.45,252.2 C1036.13,252.2 1037.48,253.557 1037.48,255.231 L1037.48,255.231 Z M1048.35,255.231 C1048.35,256.905 1046.99,258.261 1045.32,258.261 C1043.64,258.261 1042.29,256.905 1042.29,255.231 C1042.29,253.557 1043.64,252.2 1045.32,252.2 C1046.99,252.2 1048.35,253.557 1048.35,255.231 L1048.35,255.231 Z M1034.45,235.9 L1034.45,252.2 L1034.45,235.9 Z M1025.8,252.958 L1034.45,242.651 L1043.46,252.836 L1025.8,252.958 Z M1037.48,232.87 C1037.48,234.544 1036.13,235.9 1034.45,235.9 C1032.78,235.9 1031.42,234.544 1031.42,232.87 C1031.42,231.196 1032.78,229.839 1034.45,229.839 C1036.13,229.839 1037.48,231.196 1037.48,232.87 L1037.48,232.87 Z" id="Stroke-915"/>
            </g>
        </g>
    </g>
</svg>
