<?xml version="1.0" encoding="utf-8"?>
<!-- Generator: Adobe Illustrator 18.1.1, SVG Export Plug-In . SVG Version: 6.00 Build 0)  -->
<svg version="1.1" id="Camada_1" xmlns="http://www.w3.org/2000/svg" xmlns:xlink="http://www.w3.org/1999/xlink" x="0px" y="0px"
	 viewBox="0 0 48 48" enable-background="new 0 0 48 48" xml:space="preserve">
<g>
	
		<line fill="none" stroke="#231F20" stroke-width="0.75" stroke-linecap="round" stroke-linejoin="round" x1="33" y1="29.3" x2="28.6" y2="25.6"/>
	
		<line fill="none" stroke="#231F20" stroke-width="0.75" stroke-linecap="round" stroke-linejoin="round" stroke-miterlimit="10" x1="29" y1="31.5" x2="25.5" y2="28.6"/>
	<path fill="none" stroke="#231F20" stroke-width="0.75" stroke-linecap="round" stroke-linejoin="round" d="M9.8,23.8
		c1.3,3.6,11.3,11.4,11.3,11.4c2.4,2.1,4.6-1.1,2.6-2.8L22.2,31"/>
	<path fill="none" stroke="#231F20" stroke-width="0.75" stroke-linecap="round" stroke-linejoin="round" d="M22.2,31l4.2,3.6
		c2.4,2,4.7-1.3,2.8-3l1.1,0.9c2.1,1.8,4.9-1.5,2.8-3.3l0.2,0.1c2.1,1.8,4.9-1.5,2.8-3.3l-10.3-8.4c0,0-2,0.8-2.8,0.5
		c0,0-3,4.6-5.1,3c-2.2-1.6,0-8.3,6.1-9.3c0,0,2.8-0.8,9.5,2.7l2.5-0.8"/>
	
		<rect x="3.3" y="11.5" transform="matrix(-0.9622 -0.2725 0.2725 -0.9622 8.6439 39.9153)" fill="none" stroke="#231F20" stroke-width="0.75" stroke-linecap="round" stroke-linejoin="round" width="7.6" height="15.8"/>
	
		<rect x="37.7" y="11.9" transform="matrix(0.9622 -0.2725 0.2725 0.9622 -3.8137 12.062)" fill="none" stroke="#231F20" stroke-width="0.75" stroke-linecap="round" stroke-linejoin="round" width="7.6" height="15.8"/>
	<path fill="none" stroke="#231F20" stroke-width="0.75" stroke-linecap="round" stroke-linejoin="round" d="M12.6,13.8
		c0,0,0.4-0.6,8.1-0.8"/>
	<path fill="none" stroke="#231F20" stroke-width="0.75" stroke-linecap="round" stroke-linejoin="round" d="M36.6,27.2
		c0,0,1.9,0.5,2.9-0.7"/>
</g>
</svg>
