<?xml version="1.0" encoding="utf-8"?>
<!-- Generator: Adobe Illustrator 18.1.1, SVG Export Plug-In . SVG Version: 6.00 Build 0)  -->
<svg version="1.1" id="Camada_1" xmlns="http://www.w3.org/2000/svg" xmlns:xlink="http://www.w3.org/1999/xlink" x="0px" y="0px"
	 viewBox="0 0 48 48" enable-background="new 0 0 48 48" xml:space="preserve">
<g>
	
		<path fill="none" stroke="#231E21" stroke-width="0.75" stroke-linecap="round" stroke-linejoin="round" stroke-miterlimit="10" d="
		M14.2,35.8l10.7,7.6c0.5,0.4,0.4,1,0,1.4L23.7,46c-0.4,0.4-0.9,0.3-1.4,0l-10.8-7.4"/>
	
		<polygon fill="none" stroke="#231E21" stroke-width="0.75" stroke-linecap="round" stroke-linejoin="round" stroke-miterlimit="10" points="
		9.4,31 9.3,31 6.5,33.8 2.3,36.7 8.5,42.8 11.4,38.6 14.2,35.8 14.2,35.8 39.4,22.6 22.5,5.7 	"/>
	
		<path fill="none" stroke="#231E21" stroke-width="0.75" stroke-linecap="round" stroke-linejoin="round" stroke-miterlimit="10" d="
		M44.3,15.5C44.6,7.5,38,0.9,30,1.2"/>
	
		<path fill="none" stroke="#231E21" stroke-width="0.75" stroke-linecap="round" stroke-linejoin="round" stroke-miterlimit="10" d="
		M31.6,7.5c3.7-0.2,6.7,2.8,6.4,6.4"/>
	
		<line fill="none" stroke="#231E21" stroke-width="0.75" stroke-linecap="round" stroke-linejoin="round" stroke-miterlimit="10" x1="9.4" y1="31" x2="14.2" y2="35.8"/>
	
		<line fill="none" stroke="#231E21" stroke-width="0.75" stroke-linecap="round" stroke-linejoin="round" stroke-miterlimit="10" x1="6.5" y1="33.8" x2="11.4" y2="38.6"/>
</g>
</svg>
