<?xml version="1.0" encoding="utf-8"?>
<!-- Generator: Adobe Illustrator 18.1.1, SVG Export Plug-In . SVG Version: 6.00 Build 0)  -->
<svg version="1.1" id="Camada_1" xmlns="http://www.w3.org/2000/svg" xmlns:xlink="http://www.w3.org/1999/xlink" x="0px" y="0px"
	 viewBox="0 0 48 48" enable-background="new 0 0 48 48" xml:space="preserve">
<g>
	
		<polyline fill="none" stroke="#231E21" stroke-width="0.75" stroke-linecap="round" stroke-linejoin="round" stroke-miterlimit="10" points="
		39.6,31.2 37.6,43 0.8,36.8 4.5,14.6 22.6,17.6 	"/>
	
		<path fill="none" stroke="#231E21" stroke-width="0.75" stroke-linecap="round" stroke-linejoin="round" stroke-miterlimit="10" d="
		M1.8,30.8c3.3,0.6,5.5,3.7,5,7"/>
	
		<path fill="none" stroke="#231E21" stroke-width="0.75" stroke-linecap="round" stroke-linejoin="round" stroke-miterlimit="10" d="
		M31.3,41.8c0.6-3.3,3.7-5.6,7.3-5"/>
	
		<path fill="none" stroke="#231E21" stroke-width="0.75" stroke-linecap="round" stroke-linejoin="round" stroke-miterlimit="10" d="
		M10.5,15.6c-0.6,3.3-3.7,5.5-7,5"/>
	
		<path fill="none" stroke="#231E21" stroke-width="0.75" stroke-linecap="round" stroke-linejoin="round" stroke-miterlimit="10" d="
		M30.7,20.1c-0.6,0.1-1.3,0.2-2,0.2c-4.7,0-8.6-3.8-8.6-8.6c0-4.7,3.8-8.6,8.6-8.6c4.7,0,8.6,3.8,8.6,8.6c0,0.9-0.1,1.9-0.4,2.7"/>
	
		<circle fill="none" stroke="#231E21" stroke-width="0.75" stroke-linecap="round" stroke-linejoin="round" stroke-miterlimit="10" cx="38.9" cy="22.7" r="8.6"/>
	
		<path fill="none" stroke="#231E21" stroke-width="0.75" stroke-linecap="round" stroke-linejoin="round" stroke-miterlimit="10" d="
		M16.4,32.2c0.8,1,2.2,2,3.3,2.2c1.8,0.3,3.4-0.6,3.7-2.2c0.3-1.5-1.1-2.6-2.6-3.4c-1.6-0.9-2.9-1.8-2.6-3.4
		c0.3-1.5,1.9-2.5,3.7-2.2c1.2,0.2,2.1,1,2.5,1.9"/>
	
		<line fill="none" stroke="#231E21" stroke-width="0.75" stroke-linecap="round" stroke-linejoin="round" stroke-miterlimit="10" x1="22.2" y1="21.2" x2="19.4" y2="36.4"/>
	
		<path fill="none" stroke="#231E21" stroke-width="0.75" stroke-linecap="round" stroke-linejoin="round" stroke-miterlimit="10" d="
		M36.5,25.8c0.7,0.7,1.9,1.1,2.7,1.1c1.3,0,2.4-0.9,2.4-2.1s-1.2-1.7-2.4-2.1c-1.3-0.4-2.4-0.9-2.4-2.1s1.1-2.1,2.4-2.1
		c0.9,0,1.7,0.4,2.1,1.1"/>
	
		<line fill="none" stroke="#231E21" stroke-width="0.75" stroke-linecap="round" stroke-linejoin="round" stroke-miterlimit="10" x1="39.2" y1="17.4" x2="39.2" y2="18.5"/>
	
		<line fill="none" stroke="#231E21" stroke-width="0.75" stroke-linecap="round" stroke-linejoin="round" stroke-miterlimit="10" x1="39.2" y1="26.9" x2="39.2" y2="28.1"/>
	
		<path fill="none" stroke="#231E21" stroke-width="0.75" stroke-linecap="round" stroke-linejoin="round" stroke-miterlimit="10" d="
		M26.2,14.7c0.7,0.7,1.9,1.1,2.7,1.1c1.3,0,2.4-0.9,2.4-2.1s-1.2-1.7-2.4-2.1c-1.3-0.4-2.4-0.9-2.4-2.1s1.1-2.1,2.4-2.1
		c0.9,0,1.7,0.4,2.1,1.1"/>
	
		<line fill="none" stroke="#231E21" stroke-width="0.75" stroke-linecap="round" stroke-linejoin="round" stroke-miterlimit="10" x1="28.9" y1="6.3" x2="28.9" y2="7.4"/>
	
		<line fill="none" stroke="#231E21" stroke-width="0.75" stroke-linecap="round" stroke-linejoin="round" stroke-miterlimit="10" x1="28.9" y1="16.2" x2="28.9" y2="16.8"/>
</g>
</svg>
