<?xml version="1.0" encoding="utf-8"?>
<!-- Generator: Adobe Illustrator 18.1.1, SVG Export Plug-In . SVG Version: 6.00 Build 0)  -->
<svg version="1.1" id="Camada_1" xmlns="http://www.w3.org/2000/svg" xmlns:xlink="http://www.w3.org/1999/xlink" x="0px" y="0px"
	 viewBox="0 0 48 48" enable-background="new 0 0 48 48" xml:space="preserve">
<g>
	<path fill="none" stroke="#231E21" stroke-width="0.75" stroke-linecap="round" stroke-linejoin="round" d="M19.1,44.2
		c-4,4-10.4,4-14.3,0l0,0c-4-4-4-10.4,0-14.3l24.8-25c4-4,10.4-4,14.3,0l0,0c4,4,4,10.4,0,14.3L19.1,44.2z"/>
	
		<line fill="none" stroke="#231E21" stroke-width="0.75" stroke-linecap="round" stroke-linejoin="round" x1="24.3" y1="38.9" x2="10" y2="24.5"/>
	
		<line fill="none" stroke="#231E21" stroke-width="0.75" stroke-linecap="round" stroke-linejoin="round" x1="24.3" y1="10.2" x2="38.7" y2="24.5"/>
	
		<line fill="none" stroke="#231E21" stroke-width="0.75" stroke-linecap="round" stroke-linejoin="round" x1="18.2" y1="22.5" x2="18.2" y2="22.5"/>
	
		<line fill="none" stroke="#231E21" stroke-width="0.75" stroke-linecap="round" stroke-linejoin="round" x1="22.3" y1="22.5" x2="22.3" y2="22.5"/>
	
		<line fill="none" stroke="#231E21" stroke-width="0.75" stroke-linecap="round" stroke-linejoin="round" x1="22.3" y1="18.4" x2="22.3" y2="18.4"/>
	
		<line fill="none" stroke="#231E21" stroke-width="0.75" stroke-linecap="round" stroke-linejoin="round" x1="26.4" y1="22.5" x2="26.4" y2="22.5"/>
	
		<line fill="none" stroke="#231E21" stroke-width="0.75" stroke-linecap="round" stroke-linejoin="round" x1="26.4" y1="18.4" x2="26.4" y2="18.4"/>
	
		<line fill="none" stroke="#231E21" stroke-width="0.75" stroke-linecap="round" stroke-linejoin="round" x1="30.5" y1="22.5" x2="30.5" y2="22.5"/>
	
		<line fill="none" stroke="#231E21" stroke-width="0.75" stroke-linecap="round" stroke-linejoin="round" x1="30.5" y1="26.6" x2="30.5" y2="26.6"/>
	
		<line fill="none" stroke="#231E21" stroke-width="0.75" stroke-linecap="round" stroke-linejoin="round" x1="26.4" y1="26.6" x2="26.4" y2="26.6"/>
	
		<line fill="none" stroke="#231E21" stroke-width="0.75" stroke-linecap="round" stroke-linejoin="round" x1="26.4" y1="30.7" x2="26.4" y2="30.7"/>
	
		<line fill="none" stroke="#231E21" stroke-width="0.75" stroke-linecap="round" stroke-linejoin="round" x1="22.3" y1="26.6" x2="22.3" y2="26.6"/>
	
		<line fill="none" stroke="#231E21" stroke-width="0.75" stroke-linecap="round" stroke-linejoin="round" x1="22.3" y1="30.7" x2="22.3" y2="30.7"/>
	
		<line fill="none" stroke="#231E21" stroke-width="0.75" stroke-linecap="round" stroke-linejoin="round" x1="18.2" y1="26.6" x2="18.2" y2="26.6"/>
</g>
</svg>
