<?xml version="1.0" encoding="utf-8"?>
<!-- Generator: Adobe Illustrator 18.1.1, SVG Export Plug-In . SVG Version: 6.00 Build 0)  -->
<svg version="1.1" id="Camada_1" xmlns="http://www.w3.org/2000/svg" xmlns:xlink="http://www.w3.org/1999/xlink" x="0px" y="0px"
	 viewBox="0 0 48 48" enable-background="new 0 0 48 48" xml:space="preserve">
<g>
	
		<path fill="none" stroke="#231F20" stroke-width="0.75" stroke-linecap="round" stroke-linejoin="round" stroke-miterlimit="10" d="
		M33.2,30.8v-1.2c0-0.3-0.2-0.5-0.4-0.6c-2.9-1.1-6.1-2.4-6.4-3.3v-0.9c0.6-0.6,1.1-1.4,1.4-2.4c0.7-0.5,0.8-1.4,0.3-2.1v-2
		c0-2-1.2-3.5-3.9-3.5c-2.6,0-3.9,1.4-3.9,3.5v2c-0.6,0.7-0.4,1.6,0.3,2.1c0.3,1,0.8,1.8,1.4,2.4v0.9c-0.3,0.8-3.5,2.2-6.4,3.3
		c-0.2,0.1-0.4,0.3-0.4,0.6v1.2"/>
	<path fill="none" stroke="#231F20" stroke-width="0.75" stroke-linecap="round" stroke-linejoin="round" d="M26.5,0.1h-4.6
		c-0.8,0-1.7,0.7-1.5,1.6l0.9,6.9c0.1,0.7,0.8,1.2,1.5,1.2h2.8c0.8,0,1.4-0.5,1.5-1.2L28,1.7C28.2,0.8,27.3,0.1,26.5,0.1z"/>
	<path fill="none" stroke="#231F20" stroke-width="0.75" stroke-linecap="round" stroke-linejoin="round" d="M16,8.3h-3.4
		c-2,0-3.8,1.5-3.8,3.6v32.2c0,2,1.8,3.4,3.8,3.4h23.3c2,0,3.8-1.3,3.8-3.4V11.9c0-2-1.8-3.6-3.8-3.6h-3.4"/>
	
		<line fill="none" stroke="#231F20" stroke-width="0.75" stroke-linecap="round" stroke-linejoin="round" x1="25.5" y1="41.3" x2="33.2" y2="41.3"/>
	
		<line fill="none" stroke="#231F20" stroke-width="0.75" stroke-linecap="round" stroke-linejoin="round" x1="15.2" y1="41.3" x2="19.3" y2="41.3"/>
	
		<line fill="none" stroke="#231F20" stroke-width="0.75" stroke-linecap="round" stroke-linejoin="round" x1="8.8" y1="34.5" x2="39.6" y2="34.5"/>
	
		<line fill="none" stroke="#231F20" stroke-width="0.75" stroke-linecap="round" stroke-linejoin="round" stroke-miterlimit="10" x1="24.2" y1="4.3" x2="24.2" y2="4.3"/>
</g>
</svg>
